<svg width="122" height="14" viewBox="0 0 122 14" fill="none" xmlns="http://www.w3.org/2000/svg">
<path d="M-1.25766e-05 13.728V-3.8147e-06H3.02399V5.52H9.62399V-3.8147e-06H12.648V13.728H9.62399V8.016H3.02399V13.728H-1.25766e-05ZM14.6201 13.728L20.8601 -3.8147e-06H23.8601L30.0761 13.728H27.0761L21.8441 1.536H22.8521L17.5721 13.728H14.6201ZM17.7161 10.752L18.5321 8.448H25.6841L26.5001 10.752H17.7161ZM32.039 13.728V-3.8147e-06H37.9671C39.1991 -3.8147e-06 40.2631 0.199996 41.159 0.599996C42.055 0.983996 42.7431 1.544 43.2231 2.28C43.7191 3.016 43.9671 3.904 43.9671 4.944C43.9671 5.984 43.7191 6.88 43.2231 7.632C42.7431 8.368 42.055 8.936 41.159 9.336C40.2631 9.72 39.1991 9.912 37.9671 9.912H33.719L35.0631 8.52V13.728H32.039ZM35.0631 8.88L33.9591 7.464H37.7511C38.8071 7.464 39.5991 7.248 40.1271 6.816C40.6551 6.368 40.9191 5.744 40.9191 4.944C40.9191 4.144 40.6551 3.528 40.1271 3.096C39.5991 2.664 38.8071 2.448 37.7511 2.448H33.9591L35.0631 1.056V8.88ZM47.1328 13.728V-3.8147e-06H53.0608C54.2928 -3.8147e-06 55.3568 0.199996 56.2528 0.599996C57.1488 0.983996 57.8368 1.544 58.3168 2.28C58.8128 3.016 59.0608 3.904 59.0608 4.944C59.0608 5.984 58.8128 6.88 58.3168 7.632C57.8368 8.368 57.1488 8.936 56.2528 9.336C55.3568 9.72 54.2928 9.912 53.0608 9.912H48.8128L50.1568 8.52V13.728H47.1328ZM50.1568 8.88L49.0528 7.464H52.8448C53.9008 7.464 54.6928 7.248 55.2208 6.816C55.7488 6.368 56.0128 5.744 56.0128 4.944C56.0128 4.144 55.7488 3.528 55.2208 3.096C54.6928 2.664 53.9008 2.448 52.8448 2.448H49.0528L50.1568 1.056V8.88ZM65.3762 13.728V8.208L65.9522 10.128L59.8082 -3.8147e-06H63.0242L67.8242 7.824H66.1442L70.9442 -3.8147e-06H74.0162L67.8722 10.128L68.4242 8.208V13.728H65.3762ZM82.6406 13.728V-3.8147e-06H88.5686C89.8006 -3.8147e-06 90.8646 0.199996 91.7606 0.599996C92.6566 0.983996 93.3446 1.544 93.8246 2.28C94.3206 3.016 94.5686 3.904 94.5686 4.944C94.5686 5.984 94.3206 6.88 93.8246 7.632C93.3446 8.368 92.6566 8.936 91.7606 9.336C90.8646 9.72 89.8006 9.912 88.5686 9.912H84.3206L85.6646 8.52V13.728H82.6406ZM85.6646 8.88L84.5606 7.464H88.3526C89.4086 7.464 90.2006 7.248 90.7286 6.816C91.2566 6.368 91.5206 5.744 91.5206 4.944C91.5206 4.144 91.2566 3.528 90.7286 3.096C90.2006 2.664 89.4086 2.448 88.3526 2.448H84.5606L85.6646 1.056V8.88ZM100.35 5.592H107.31V7.944H100.35V5.592ZM100.758 11.304H108.39V13.728H97.7344V-3.8147e-06H108.126V2.448H100.758V11.304ZM114.036 13.728V2.472H109.524V-3.8147e-06H121.572V2.472H117.06V13.728H114.036Z" fill="#D5D5D5"/>
</svg>
