<svg width="82" height="50" viewBox="0 0 82 50" fill="none" xmlns="http://www.w3.org/2000/svg">
<path d="M49.1592 49.1745C49.1138 48.5283 49.0907 47.876 49.0907 47.2185C49.0907 42.1099 50.4836 37.3216 52.916 33.2017C50.0059 28.2725 45.6079 24.3001 40.3277 21.8806C40.2023 21.9306 40.0765 21.9798 39.9503 22.0281C36.9778 27.74 30.9455 31.6483 23.9875 31.6483C18.5837 31.6483 13.7382 29.2909 10.4508 25.5622C4.07279 30.6842 -7.62939e-06 38.4831 -7.62939e-06 47.2185C-7.62939e-06 47.876 0.0230713 48.5283 0.0684757 49.1745H8.00042C10.2458 42.2752 16.8043 37.2817 24.5453 37.2817C32.2864 37.2817 38.8449 42.2752 41.0903 49.1745H49.1592Z" fill="url(#paint0_radial_16_30)"/>
<path d="M29.3269 23.9805C25.0609 23.9805 21.0075 23.0838 17.3509 21.4714C14.8472 22.5113 12.5269 23.895 10.4508 25.5622C13.7382 29.2909 18.5837 31.6483 23.9875 31.6483C30.9455 31.6483 36.9778 27.74 39.9503 22.0281C36.6563 23.2888 33.0737 23.9805 29.3269 23.9805Z" fill="url(#paint1_radial_16_30)"/>
<path d="M6.09923 12.7371C6.07099 13.143 6.05664 13.5526 6.05664 13.9655C6.05664 18.4024 7.7137 22.4577 10.4508 25.5622C12.5269 23.895 14.8472 22.5113 17.3509 21.4714C12.9033 19.5101 9.04244 16.4902 6.09923 12.7371Z" fill="url(#paint2_radial_16_30)"/>
<path d="M60.9337 24.5127C61.8742 23.5091 62.9948 22.6728 64.2448 22.054C63.3575 22.1891 62.4484 22.2592 61.5228 22.2592C61.1015 22.2592 60.6837 22.2447 60.2698 22.2161C59.7348 22.2447 59.196 22.2592 58.6538 22.2592C53.9235 22.2592 49.4547 21.1567 45.4982 19.1984C43.88 20.2533 42.1493 21.1544 40.3277 21.8806C45.6079 24.3001 50.0059 28.2725 52.916 33.2017C54.938 29.7768 57.6782 26.8138 60.9337 24.5127Z" fill="url(#paint3_radial_16_30)"/>
<path d="M60.564 5.45444C59.3768 5.18414 58.2095 4.86845 57.0642 4.50953C55.3877 9.30494 52.4641 13.529 48.6749 16.8064C51.631 19.8849 55.7124 21.9016 60.2698 22.2161C62.9653 22.072 65.5639 21.5696 68.0175 20.7563C63.1178 19.6928 59.4508 15.3749 59.4508 10.2099C59.4508 8.50333 59.8511 6.88923 60.564 5.45444Z" fill="url(#paint4_radial_16_30)"/>
<path d="M81.1522 11.9087C81.2407 11.3553 81.2866 10.7879 81.2866 10.2099C81.2866 8.58926 80.9255 7.05202 80.2787 5.67255C79.9148 5.74681 79.5491 5.81684 79.1818 5.88256C78.823 11.7242 75.5498 16.7901 70.7774 19.6845C74.8055 17.8818 78.3464 15.2085 81.1522 11.9087Z" fill="url(#paint5_radial_16_30)"/>
<path d="M69.4438 20.417C71.6143 19.7886 73.8929 19.4088 76.2456 19.3112C78.8188 17.6827 80.6557 15.0161 81.1522 11.9087C78.3464 15.2085 74.8055 17.8818 70.7774 19.6845C70.3448 19.9468 69.9 20.1913 69.4438 20.417Z" fill="url(#paint6_radial_16_30)"/>
<path d="M69.4124 20.8508C70.0045 20.8508 70.5862 20.8949 71.1544 20.9798C73.0201 20.8486 74.7562 20.2538 76.2456 19.3112C73.8929 19.4088 71.6143 19.7886 69.4438 20.417C69.1344 20.5701 68.8197 20.7144 68.5002 20.8498C68.5515 20.8586 68.6029 20.867 68.6545 20.875C68.905 20.859 69.1577 20.8508 69.4124 20.8508Z" fill="url(#paint7_radial_16_30)"/>
<path d="M51.9596 8.95803C51.9596 12.0149 50.6752 14.775 48.6109 16.7394C48.6322 16.7618 48.6535 16.7841 48.6749 16.8064C52.4641 13.529 55.3877 9.30494 57.0642 4.50953C53.5209 3.39906 50.1893 1.87473 47.1391 0C50.0472 1.93977 51.9596 5.22803 51.9596 8.95803Z" fill="url(#paint8_radial_16_30)"/>
<path d="M61.5228 22.2592C62.4484 22.2592 63.3575 22.1891 64.2448 22.054C65.3233 21.52 66.4982 21.1479 67.7368 20.9701C67.8991 20.9118 68.0621 20.8549 68.2257 20.7994C68.1561 20.7857 68.0866 20.7713 68.0175 20.7563C65.5639 21.5696 62.9653 22.072 60.2698 22.2161C60.6837 22.2447 61.1015 22.2592 61.5228 22.2592Z" fill="url(#paint9_radial_16_30)"/>
<path d="M59.4508 10.2099C59.4508 15.3749 63.1178 19.6928 68.0175 20.7563C68.9598 20.444 69.8807 20.0858 70.7774 19.6845C75.5498 16.7901 78.823 11.7242 79.1818 5.88256C76.5112 6.36034 73.751 6.61076 70.9265 6.61076C67.3523 6.61076 63.881 6.20974 60.564 5.45444C59.8511 6.88923 59.4508 8.50333 59.4508 10.2099Z" fill="url(#paint10_radial_16_30)"/>
<path d="M70.7774 19.6845C69.8807 20.0858 68.9598 20.444 68.0175 20.7563C68.0866 20.7713 68.1561 20.7857 68.2257 20.7994C68.6278 20.6632 69.0339 20.5357 69.4438 20.417C69.9 20.1913 70.3448 19.9468 70.7774 19.6845Z" fill="url(#paint11_radial_16_30)"/>
<path d="M68.5002 20.8498C68.8197 20.7144 69.1344 20.5701 69.4438 20.417C69.0339 20.5357 68.6278 20.6632 68.2257 20.7994C68.3168 20.8173 68.4083 20.8342 68.5002 20.8498Z" fill="url(#paint12_radial_16_30)"/>
<path d="M68.3934 20.8946C68.4291 20.8798 68.4646 20.8649 68.5002 20.8498C68.4083 20.8342 68.3168 20.8173 68.2257 20.7994C68.0621 20.8549 67.8991 20.9118 67.7368 20.9701C67.9538 20.9389 68.1727 20.9137 68.3934 20.8946Z" fill="url(#paint13_radial_16_30)"/>
<path d="M68.6545 20.875C68.6029 20.867 68.5515 20.8586 68.5002 20.8498C68.4646 20.8649 68.4291 20.8798 68.3934 20.8946C68.4802 20.8872 68.5672 20.8806 68.6545 20.875Z" fill="url(#paint14_radial_16_30)"/>
<defs>
<radialGradient id="paint0_radial_16_30" cx="0" cy="0" r="1" gradientUnits="userSpaceOnUse" gradientTransform="translate(75.4824 37.151) rotate(-154.159) scale(123.888 114.554)">
<stop stop-color="#AF5A9D"/>
<stop offset="1" stop-color="#261A70" stop-opacity="0.83"/>
</radialGradient>
<radialGradient id="paint1_radial_16_30" cx="0" cy="0" r="1" gradientUnits="userSpaceOnUse" gradientTransform="translate(75.4824 37.151) rotate(-154.159) scale(123.888 114.554)">
<stop stop-color="#AF5A9D"/>
<stop offset="1" stop-color="#261A70" stop-opacity="0.83"/>
</radialGradient>
<radialGradient id="paint2_radial_16_30" cx="0" cy="0" r="1" gradientUnits="userSpaceOnUse" gradientTransform="translate(75.4824 37.151) rotate(-154.159) scale(123.888 114.554)">
<stop stop-color="#AF5A9D"/>
<stop offset="1" stop-color="#261A70" stop-opacity="0.83"/>
</radialGradient>
<radialGradient id="paint3_radial_16_30" cx="0" cy="0" r="1" gradientUnits="userSpaceOnUse" gradientTransform="translate(75.4824 37.151) rotate(-154.159) scale(123.888 114.554)">
<stop stop-color="#AF5A9D"/>
<stop offset="1" stop-color="#261A70" stop-opacity="0.83"/>
</radialGradient>
<radialGradient id="paint4_radial_16_30" cx="0" cy="0" r="1" gradientUnits="userSpaceOnUse" gradientTransform="translate(75.4824 37.151) rotate(-154.159) scale(123.888 114.554)">
<stop stop-color="#AF5A9D"/>
<stop offset="1" stop-color="#261A70" stop-opacity="0.83"/>
</radialGradient>
<radialGradient id="paint5_radial_16_30" cx="0" cy="0" r="1" gradientUnits="userSpaceOnUse" gradientTransform="translate(75.4824 37.151) rotate(-154.159) scale(123.888 114.554)">
<stop stop-color="#AF5A9D"/>
<stop offset="1" stop-color="#261A70" stop-opacity="0.83"/>
</radialGradient>
<radialGradient id="paint6_radial_16_30" cx="0" cy="0" r="1" gradientUnits="userSpaceOnUse" gradientTransform="translate(75.4824 37.151) rotate(-154.159) scale(123.888 114.554)">
<stop stop-color="#AF5A9D"/>
<stop offset="1" stop-color="#261A70" stop-opacity="0.83"/>
</radialGradient>
<radialGradient id="paint7_radial_16_30" cx="0" cy="0" r="1" gradientUnits="userSpaceOnUse" gradientTransform="translate(75.4824 37.151) rotate(-154.159) scale(123.888 114.554)">
<stop stop-color="#AF5A9D"/>
<stop offset="1" stop-color="#261A70" stop-opacity="0.83"/>
</radialGradient>
<radialGradient id="paint8_radial_16_30" cx="0" cy="0" r="1" gradientUnits="userSpaceOnUse" gradientTransform="translate(75.4824 37.151) rotate(-154.159) scale(123.888 114.554)">
<stop stop-color="#AF5A9D"/>
<stop offset="1" stop-color="#261A70" stop-opacity="0.83"/>
</radialGradient>
<radialGradient id="paint9_radial_16_30" cx="0" cy="0" r="1" gradientUnits="userSpaceOnUse" gradientTransform="translate(75.4824 37.151) rotate(-154.159) scale(123.888 114.554)">
<stop stop-color="#AF5A9D"/>
<stop offset="1" stop-color="#261A70" stop-opacity="0.83"/>
</radialGradient>
<radialGradient id="paint10_radial_16_30" cx="0" cy="0" r="1" gradientUnits="userSpaceOnUse" gradientTransform="translate(75.4824 37.151) rotate(-154.159) scale(123.888 114.554)">
<stop stop-color="#AF5A9D"/>
<stop offset="1" stop-color="#261A70" stop-opacity="0.83"/>
</radialGradient>
<radialGradient id="paint11_radial_16_30" cx="0" cy="0" r="1" gradientUnits="userSpaceOnUse" gradientTransform="translate(75.4824 37.151) rotate(-154.159) scale(123.888 114.554)">
<stop stop-color="#AF5A9D"/>
<stop offset="1" stop-color="#261A70" stop-opacity="0.83"/>
</radialGradient>
<radialGradient id="paint12_radial_16_30" cx="0" cy="0" r="1" gradientUnits="userSpaceOnUse" gradientTransform="translate(75.4824 37.151) rotate(-154.159) scale(123.888 114.554)">
<stop stop-color="#AF5A9D"/>
<stop offset="1" stop-color="#261A70" stop-opacity="0.83"/>
</radialGradient>
<radialGradient id="paint13_radial_16_30" cx="0" cy="0" r="1" gradientUnits="userSpaceOnUse" gradientTransform="translate(75.4824 37.151) rotate(-154.159) scale(123.888 114.554)">
<stop stop-color="#AF5A9D"/>
<stop offset="1" stop-color="#261A70" stop-opacity="0.83"/>
</radialGradient>
<radialGradient id="paint14_radial_16_30" cx="0" cy="0" r="1" gradientUnits="userSpaceOnUse" gradientTransform="translate(75.4824 37.151) rotate(-154.159) scale(123.888 114.554)">
<stop stop-color="#AF5A9D"/>
<stop offset="1" stop-color="#261A70" stop-opacity="0.83"/>
</radialGradient>
</defs>
</svg>
